<svg id="Capa_1" data-name="Capa 1" xmlns="http://www.w3.org/2000/svg" viewBox="0 0 232.73 150"><title>Breast cancer black icon</title><path d="M167.71,45a41.1,41.1,0,0,0-40.89,41v66.49c0,23.28,18.16,42.34,40.91,42.49,37.59,0,68.63-33.64,68.63-75S205.32,45,167.71,45Zm29.81,108.28A6.82,6.82,0,1,1,187,144.54,38.18,38.18,0,0,0,195.45,120,38.25,38.25,0,0,0,187,95.45a6.82,6.82,0,0,1,10.49-8.72,53.65,53.65,0,0,1,0,66.55Z" transform="translate(-3.64 -45)"/><path d="M72.24,195c22.32-.15,40.94-19.21,40.94-42.49V86c0-22.54-18.8-40.95-41.36-41C34.22,45,3.64,78.64,3.64,120S34.22,195,72.24,195ZM42.48,86.72A6.82,6.82,0,1,1,53,95.46,38.18,38.18,0,0,0,44.55,120,38.18,38.18,0,0,0,53,144.54a6.82,6.82,0,0,1-10.48,8.74,53.65,53.65,0,0,1,0-66.56Z" transform="translate(-3.64 -45)"/></svg>