<svg id="Layer_1" data-name="Layer 1" xmlns="http://www.w3.org/2000/svg" viewBox="0 0 64 64"><defs><style>.cls-1{fill:none;}.cls-2{fill:#fbd232;}</style></defs><title>gold medal-1-fill</title><path class="cls-1" d="M0,0H64V64H0Z"/><path class="cls-2" d="M32,18.67A21.33,21.33,0,1,1,10.67,40,21.33,21.33,0,0,1,32,18.67ZM32,28l-3.53,7.15-7.88,1.14,5.7,5.56L25,49.71,32,46l7,3.71-1.34-7.86,5.7-5.56-7.88-1.15ZM34.67,5.33H48v8l-3.63,3a26.66,26.66,0,0,0-9.7-2.91V5.33Zm-5.34,0v8.13a26.36,26.36,0,0,0-9.69,2.91l-3.64-3v-8Z"/></svg>