<svg id="Layer_1" data-name="Layer 1" xmlns="http://www.w3.org/2000/svg" viewBox="0 0 64 64"><defs><style>.cls-1{fill:none;}.cls-2{fill:#fbd232;}</style></defs><title>gold medal-3-fill</title><path class="cls-1" d="M0,0H64V64H0Z"/><path class="cls-2" d="M21.85,49.12a3.11,3.11,0,0,0,2.71.34L31,47.27a3,3,0,0,1,2,0l6.43,2.19a3.11,3.11,0,0,0,2.71-.34V59L32,55.55,21.85,59Zm9.33-6L26,44.89a2.54,2.54,0,0,1-3.1-1.29L20.3,38.36a2.61,2.61,0,0,0-1.09-1.14l-5.08-2.68a2.56,2.56,0,0,1-1.23-3l1.81-5.77a2.59,2.59,0,0,0,0-1.51L12.9,18.49a2.55,2.55,0,0,1,1.24-3l5.07-2.68a2.61,2.61,0,0,0,1.09-1.14l2.55-5.24A2.53,2.53,0,0,1,26,5.14l5.23,1.78a2.56,2.56,0,0,0,1.64,0l5.23-1.78a2.53,2.53,0,0,1,3.1,1.29l2.55,5.24a2.61,2.61,0,0,0,1.09,1.14l5.08,2.68a2.56,2.56,0,0,1,1.23,3l-1.81,5.77a2.59,2.59,0,0,0,0,1.51l1.81,5.77a2.55,2.55,0,0,1-1.24,3l-5.07,2.68a2.61,2.61,0,0,0-1.09,1.14L41.15,43.6a2.54,2.54,0,0,1-3.1,1.29l-5.23-1.78A2.56,2.56,0,0,0,31.18,43.11ZM32,17.4a2.54,2.54,0,0,0-2.54,2.54V30.09a2.54,2.54,0,0,0,5.08,0V19.94A2.54,2.54,0,0,0,32,17.4Z"/></svg>