<svg id="Capa_1" data-name="Capa 1" xmlns="http://www.w3.org/2000/svg" viewBox="0 0 240 240"><defs><style>.cls-1{fill:#fff;}</style></defs><title>gyno cancer white icon</title><g id="Page-1"><path id="Shape" class="cls-1" d="M60,76.53A13.32,13.32,0,0,0,51.31,65.8h0l0,0a38.56,38.56,0,0,0-17-3.73c-10.79,0-20.26,4-24,9.42v0a8.87,8.87,0,0,0-1.72,5C8.57,84.39,20.35,91,34.29,91S60,84.39,60,76.53Z"/><path class="cls-1" d="M25.71,231.72a8.43,8.43,0,0,0,8.58-8.27V190.34H17.14v33.11A8.42,8.42,0,0,0,25.71,231.72Z"/><path class="cls-1" d="M188.57,186.2a16.69,16.69,0,0,0,12.86,16v15.07a14.75,14.75,0,0,1-15,14.48H83.57a14.75,14.75,0,0,1-15-14.48V152c.21-11.95-8.93-22.15-21.21-23.66a24.09,24.09,0,0,0-18.16,5.78A22.44,22.44,0,0,0,21.43,151v18.62H17.14a4.22,4.22,0,0,0-4.28,4.14v8.28H38.57v-8.28a4.22,4.22,0,0,0-4.28-4.14H30V151.43a14.87,14.87,0,0,1,11.85-14.59,15.39,15.39,0,0,1,12.57,2.92A14.32,14.32,0,0,1,60,151v66.22C60,229.81,70.55,240,83.57,240H186.43c13,0,23.57-10.19,23.57-22.76V202.17a16.69,16.69,0,0,0,12.86-16V144.81H188.57Z"/><path class="cls-1" d="M188.57,16.52h-.18a72.83,72.83,0,0,1-17.15-2.07,26.29,26.29,0,0,1,4.47,14.48,4.29,4.29,0,0,1-8.57,0C167.14,13.21,146.1.38,120,0,93.9.38,72.86,13.21,72.86,28.93a4.29,4.29,0,0,1-8.57,0,26.45,26.45,0,0,1,4.47-14.48,71.62,71.62,0,0,1-17,2.07h-.18C23.07,16.52,0,30.44,0,47.56A22.23,22.23,0,0,0,6.8,62.81a41.72,41.72,0,0,1,27.49-9.05,48.78,48.78,0,0,1,17.1,3A28.77,28.77,0,0,1,62,46.05a18,18,0,0,1,23.34,5.26c3.42,5.24,4,17.63,4.71,37.39a223.44,223.44,0,0,0,3.62,40.56,12.86,12.86,0,0,1,4.74-1h4.5a4.14,4.14,0,1,1,0,8.28h-4.5a4.23,4.23,0,0,0-3.6,1.92,4,4,0,0,0-.35,3.75l10.29,24.84a4.26,4.26,0,0,0,3.94,2.59h22.72a4.25,4.25,0,0,0,3.94-2.59l10.28-24.83a4,4,0,0,0-.41-3.85,4.34,4.34,0,0,0-3.53-1.83h-4.5a4.14,4.14,0,1,1,0-8.28h4.5a13.11,13.11,0,0,1,5,1.05,223.19,223.19,0,0,0,3.63-40.61c.69-19.76,1.29-32.15,4.72-37.39a18,18,0,0,1,23.32-5.26,28.68,28.68,0,0,1,10.51,10.61,49.07,49.07,0,0,1,16.94-2.9,41.72,41.72,0,0,1,27.49,9.05A22.23,22.23,0,0,0,240,47.56c0-17.12-23.07-31-51.43-31ZM124.29,120a4.29,4.29,0,0,1-8.58,0V103.43a4.29,4.29,0,0,1,8.58,0Z"/><path class="cls-1" d="M229.71,71.49l0,0C226,66,216.5,62,205.71,62a39,39,0,0,0-16.33,3.4,3.19,3.19,0,0,1-.47.35,3.25,3.25,0,0,1-.42.11A13.21,13.21,0,0,0,180,76.53c0,5.1,5.11,9.83,12.86,12.41V86.87a8.2,8.2,0,0,1,4.71-7.4l8.57-4.14a8.85,8.85,0,0,1,8.36.35,8.21,8.21,0,0,1,4.07,7v6.21c7.75-2.59,12.86-7.32,12.86-12.41a8.87,8.87,0,0,0-1.72-5Z"/><path class="cls-1" d="M192.86,128.26v8.28h25.71v-8.28a4.21,4.21,0,0,0-4.28-4.14H197.14A4.21,4.21,0,0,0,192.86,128.26Z"/><path class="cls-1" d="M201.43,86.88v29H210V82.74Z"/></g></svg>