<svg id="Capa_1" data-name="Capa 1" xmlns="http://www.w3.org/2000/svg" viewBox="0 0 240 240"><defs><style>.cls-1{fill:#fff;}</style></defs><title>lungs cancer white icon</title><path class="cls-1" d="M75.13,166.87A30.47,30.47,0,0,1,61,109.39L89.53,94.5V50.4a27.66,27.66,0,0,0-24.35-2.23A101.25,101.25,0,0,0,0,142.75v69.68a27.63,27.63,0,0,0,36.72,26l12.85-4.41a78.79,78.79,0,0,0,53.2-74.44v-3.29l-13.6,7.1a30.31,30.31,0,0,1-14,3.45Z" transform="translate(0 0)"/><path class="cls-1" d="M174.82,48.17a27.66,27.66,0,0,0-24.35,2.23V94.5L179,109.39a30.47,30.47,0,1,1-28.19,54l-13.6-7.1v3.29a78.79,78.79,0,0,0,53.2,74.44l12.85,4.41a27.63,27.63,0,0,0,36.72-26V142.75a101.25,101.25,0,0,0-65.18-94.58Z" transform="translate(0 0)"/><path class="cls-1" d="M164.91,152.82a16.41,16.41,0,0,0,7.6-31L136.41,103V16.41a16.41,16.41,0,0,0-32.82,0V103l-36.1,18.84A16.4,16.4,0,0,0,82.66,151L120,131.47,157.34,151a16.24,16.24,0,0,0,7.57,1.87Z" transform="translate(0 0)"/></svg>