<svg id="Layer_1" data-name="Layer 1" xmlns="http://www.w3.org/2000/svg" xmlns:xlink="http://www.w3.org/1999/xlink" viewBox="0 0 1880.96 1785.49"><defs><style>.cls-1{fill:none;}.cls-2{clip-path:url(#clip-path);}.cls-3{fill:#06beb6;}.cls-4{fill:#07beb6;}.cls-5{fill:#08beb6;}.cls-6{fill:#09bdb6;}.cls-7{fill:#0abdb6;}.cls-8{fill:#0abdb7;}.cls-9{fill:#0bbdb7;}.cls-10{fill:#0cbdb7;}.cls-11{fill:#0dbdb7;}.cls-12{fill:#0ebcb7;}.cls-13{fill:#0fbcb7;}.cls-14{fill:#10bcb7;}.cls-15{fill:#11bcb7;}.cls-16{fill:#12bcb8;}.cls-17{fill:#13bcb8;}.cls-18{fill:#14bbb8;}.cls-19{fill:#15bbb8;}.cls-20{fill:#16bbb8;}.cls-21{fill:#17bbb8;}.cls-22{fill:#18bab8;}.cls-23{fill:#19bab9;}.cls-24{fill:#1abab9;}.cls-25{fill:#1bbab9;}.cls-26{fill:#1dbab9;}.cls-27{fill:#1eb9b9;}.cls-28{fill:#1fb9b9;}.cls-29{fill:#20b9ba;}.cls-30{fill:#21b9ba;}.cls-31{fill:#22b8ba;}.cls-32{fill:#24b8ba;}.cls-33{fill:#25b8ba;}.cls-34{fill:#26b8ba;}.cls-35{fill:#28b7bb;}.cls-36{fill:#29b7bb;}.cls-37{fill:#2ab7bb;}.cls-38{fill:#2cb7bb;}.cls-39{fill:#2db6bb;}.cls-40{fill:#2eb6bc;}.cls-41{fill:#30b6bc;}.cls-42{fill:#31b5bc;}.cls-43{fill:#33b5bc;}.cls-44{fill:#34b5bc;}.cls-45{fill:#36b5bd;}.cls-46{fill:#37b4bd;}.cls-47{fill:#39b4bd;}.cls-48{fill:#3bb4bd;}.cls-49{fill:#3cb3bd;}.cls-50{fill:#3eb3be;}.cls-51{fill:#3fb3be;}.cls-52{fill:#41b2be;}.cls-53{fill:#43b2be;}.cls-54{fill:#45b2bf;}.cls-55{fill:#46b1bf;}.cls-56{fill:#48b1bf;}.cls-57{clip-path:url(#clip-path-2);}.cls-58{fill:#9b9b9b;}.cls-59{clip-path:url(#clip-path-3);}.cls-60{clip-path:url(#clip-path-4);}.cls-61{fill:#fff;}</style><clipPath id="clip-path" transform="translate(-19.52 -67.25)"><path class="cls-1" d="M962.72,991.39"/></clipPath><clipPath id="clip-path-2" transform="translate(-19.52 -67.25)"><ellipse cx="770.6" cy="878.93" rx="99.45" ry="60.2" transform="translate(-135.31 1617.61) rotate(-87.95)"/></clipPath><clipPath id="clip-path-3" transform="translate(-19.52 -67.25)"><ellipse cx="1154.84" cy="878.93" rx="99.45" ry="60.2" transform="matrix(0.04, -1, 1, 0.04, 235.19, 2001.61)"/></clipPath><clipPath id="clip-path-4" transform="translate(-19.52 -67.25)"><path class="cls-1" d="M962.72,988.26"/></clipPath></defs><title>mcc logo</title><g class="cls-2"><path class="cls-3" d="M962.72,991.39Z" transform="translate(-19.52 -67.25)"/><path class="cls-3" d="M962.72,991.39Z" transform="translate(-19.52 -67.25)"/><path class="cls-3" d="M962.72,991.39Z" transform="translate(-19.52 -67.25)"/><path class="cls-3" d="M962.72,991.39Z" transform="translate(-19.52 -67.25)"/><path class="cls-3" d="M962.72,991.39Z" transform="translate(-19.52 -67.25)"/><path class="cls-4" d="M962.72,991.39Z" transform="translate(-19.52 -67.25)"/><path class="cls-4" d="M962.72,991.39Z" transform="translate(-19.52 -67.25)"/><path class="cls-4" d="M962.72,991.39Z" transform="translate(-19.52 -67.25)"/><path class="cls-4" d="M962.72,991.39Z" transform="translate(-19.52 -67.25)"/><path class="cls-5" d="M962.72,991.39Z" transform="translate(-19.52 -67.25)"/><path class="cls-5" d="M962.72,991.39Z" transform="translate(-19.52 -67.25)"/><path class="cls-6" d="M962.72,991.39Z" transform="translate(-19.52 -67.25)"/><path class="cls-6" d="M962.72,991.39Z" transform="translate(-19.52 -67.25)"/><path class="cls-7" d="M962.72,991.39Z" transform="translate(-19.52 -67.25)"/><path class="cls-8" d="M962.72,991.39Z" transform="translate(-19.52 -67.25)"/><path class="cls-9" d="M962.72,991.39Z" transform="translate(-19.52 -67.25)"/><path class="cls-9" d="M962.72,991.39Z" transform="translate(-19.52 -67.25)"/><path class="cls-10" d="M962.72,991.39Z" transform="translate(-19.52 -67.25)"/><path class="cls-10" d="M962.72,991.39Z" transform="translate(-19.52 -67.25)"/><path class="cls-11" d="M962.72,991.39Z" transform="translate(-19.52 -67.25)"/><path class="cls-12" d="M962.72,991.39Z" transform="translate(-19.52 -67.25)"/><path class="cls-13" d="M962.72,991.39Z" transform="translate(-19.52 -67.25)"/><path class="cls-13" d="M962.72,991.39Z" transform="translate(-19.52 -67.25)"/><path class="cls-14" d="M962.72,991.39Z" transform="translate(-19.52 -67.25)"/><path class="cls-15" d="M962.72,991.39Z" transform="translate(-19.52 -67.25)"/><path class="cls-16" d="M962.72,991.39Z" transform="translate(-19.52 -67.25)"/><path class="cls-17" d="M962.72,991.39Z" transform="translate(-19.52 -67.25)"/><path class="cls-18" d="M962.72,991.39Z" transform="translate(-19.52 -67.25)"/><path class="cls-18" d="M962.72,991.39Z" transform="translate(-19.52 -67.25)"/><path class="cls-19" d="M962.72,991.39Z" transform="translate(-19.52 -67.25)"/><path class="cls-20" d="M962.72,991.39Z" transform="translate(-19.52 -67.25)"/><path class="cls-21" d="M962.72,991.39Z" transform="translate(-19.52 -67.25)"/><path class="cls-22" d="M962.72,991.39Z" transform="translate(-19.52 -67.25)"/><path class="cls-23" d="M962.72,991.39Z" transform="translate(-19.52 -67.25)"/><path class="cls-24" d="M962.72,991.39Z" transform="translate(-19.52 -67.25)"/><path class="cls-25" d="M962.72,991.39Z" transform="translate(-19.52 -67.25)"/><path class="cls-26" d="M962.72,991.39Z" transform="translate(-19.52 -67.25)"/><path class="cls-27" d="M962.72,991.39Z" transform="translate(-19.52 -67.25)"/><path class="cls-28" d="M962.72,991.39Z" transform="translate(-19.52 -67.25)"/><path class="cls-29" d="M962.72,991.39Z" transform="translate(-19.52 -67.25)"/><path class="cls-30" d="M962.72,991.39Z" transform="translate(-19.52 -67.25)"/><path class="cls-31" d="M962.72,991.39Z" transform="translate(-19.52 -67.25)"/><path class="cls-32" d="M962.72,991.39Z" transform="translate(-19.52 -67.25)"/><path class="cls-33" d="M962.72,991.39Z" transform="translate(-19.52 -67.25)"/><path class="cls-34" d="M962.72,991.39Z" transform="translate(-19.52 -67.25)"/><path class="cls-35" d="M962.72,991.39Z" transform="translate(-19.52 -67.25)"/><path class="cls-36" d="M962.72,991.39Z" transform="translate(-19.52 -67.25)"/><path class="cls-37" d="M962.72,991.39Z" transform="translate(-19.52 -67.25)"/><path class="cls-38" d="M962.72,991.39Z" transform="translate(-19.52 -67.25)"/><path class="cls-39" d="M962.72,991.39Z" transform="translate(-19.52 -67.25)"/><path class="cls-40" d="M962.72,991.39Z" transform="translate(-19.52 -67.25)"/><path class="cls-41" d="M962.72,991.39Z" transform="translate(-19.52 -67.25)"/><path class="cls-42" d="M962.72,991.39Z" transform="translate(-19.52 -67.25)"/><path class="cls-43" d="M962.72,991.39Z" transform="translate(-19.52 -67.25)"/><path class="cls-44" d="M962.72,991.39Z" transform="translate(-19.52 -67.25)"/><path class="cls-45" d="M962.72,991.39Z" transform="translate(-19.52 -67.25)"/><path class="cls-46" d="M962.72,991.39Z" transform="translate(-19.52 -67.25)"/><path class="cls-47" d="M962.72,991.39Z" transform="translate(-19.52 -67.25)"/><path class="cls-48" d="M962.72,991.39Z" transform="translate(-19.52 -67.25)"/><path class="cls-49" d="M962.72,991.39Z" transform="translate(-19.52 -67.25)"/><path class="cls-50" d="M962.72,991.39Z" transform="translate(-19.52 -67.25)"/><path class="cls-51" d="M962.72,991.39Z" transform="translate(-19.52 -67.25)"/><path class="cls-52" d="M962.72,991.39Z" transform="translate(-19.52 -67.25)"/><path class="cls-53" d="M962.72,991.39Z" transform="translate(-19.52 -67.25)"/><path class="cls-54" d="M962.72,991.39Z" transform="translate(-19.52 -67.25)"/><path class="cls-55" d="M962.72,991.39Z" transform="translate(-19.52 -67.25)"/><path class="cls-56" d="M962.72,991.39Z" transform="translate(-19.52 -67.25)"/><path class="cls-56" d="M962.72,991.39Z" transform="translate(-19.52 -67.25)"/></g><ellipse cx="770.6" cy="878.93" rx="99.45" ry="60.2" transform="translate(-154.83 1550.36) rotate(-87.95)"/><g class="cls-57"><polygon points="692.88 754.63 687.37 908.89 687.32 908.89 692.88 754.63"/><polygon points="696.3 710.18 689.19 908.96 687.37 908.89 692.88 754.63 694.49 710.12 696.3 710.18"/><rect x="613.72" y="875.94" width="198.91" height="1.82" transform="translate(-208.13 1490.98) rotate(-87.95)"/><rect x="615.54" y="876.01" width="198.91" height="1.82" transform="translate(-206.44 1492.87) rotate(-87.95)"/><rect x="617.37" y="876.08" width="198.91" height="1.82" transform="matrix(0.04, -1, 1, 0.04, -204.75, 1494.75)"/><rect x="619.19" y="876.14" width="198.91" height="1.82" transform="translate(-203.06 1496.64) rotate(-87.95)"/><rect x="621.01" y="876.21" width="198.91" height="1.82" transform="translate(-201.36 1498.52) rotate(-87.95)"/><rect x="622.84" y="876.27" width="198.91" height="1.82" transform="translate(-199.67 1500.41) rotate(-87.95)"/><rect x="624.66" y="876.34" width="198.91" height="1.82" transform="translate(-197.98 1502.29) rotate(-87.95)"/><rect x="626.48" y="876.4" width="198.91" height="1.82" transform="translate(-196.29 1504.18) rotate(-87.95)"/><rect x="628.3" y="876.47" width="198.91" height="1.82" transform="translate(-194.59 1506.06) rotate(-87.95)"/><rect x="630.13" y="876.54" width="198.91" height="1.82" transform="translate(-192.9 1507.95) rotate(-87.95)"/><rect x="631.95" y="876.6" width="198.91" height="1.82" transform="translate(-191.21 1509.83) rotate(-87.95)"/><rect x="633.77" y="876.67" width="198.91" height="1.82" transform="translate(-189.52 1511.72) rotate(-87.95)"/><rect x="635.6" y="876.73" width="198.91" height="1.82" transform="translate(-187.83 1513.6) rotate(-87.95)"/><rect x="637.42" y="876.8" width="198.91" height="1.82" transform="translate(-186.13 1515.49) rotate(-87.95)"/><rect x="639.24" y="876.86" width="198.91" height="1.82" transform="translate(-184.44 1517.37) rotate(-87.95)"/><rect x="641.06" y="876.93" width="198.91" height="1.82" transform="matrix(0.04, -1, 1, 0.04, -182.75, 1519.26)"/><rect x="642.89" y="876.99" width="198.91" height="1.82" transform="translate(-181.06 1521.14) rotate(-87.95)"/><rect x="644.71" y="877.06" width="198.91" height="1.82" transform="translate(-179.37 1523.03) rotate(-87.95)"/><rect x="646.53" y="877.13" width="198.91" height="1.82" transform="translate(-177.67 1524.91) rotate(-87.95)"/><rect x="648.36" y="877.19" width="198.91" height="1.82" transform="translate(-175.98 1526.8) rotate(-87.95)"/><rect x="650.18" y="877.26" width="198.91" height="1.82" transform="translate(-174.29 1528.68) rotate(-87.95)"/><rect x="652" y="877.32" width="198.91" height="1.82" transform="translate(-172.6 1530.57) rotate(-87.95)"/><rect x="653.82" y="877.39" width="198.91" height="1.82" transform="translate(-170.91 1532.45) rotate(-87.95)"/><rect x="655.65" y="877.45" width="198.91" height="1.82" transform="translate(-169.21 1534.34) rotate(-87.95)"/><rect x="657.47" y="877.52" width="198.91" height="1.82" transform="translate(-167.52 1536.22) rotate(-87.95)"/><rect x="659.29" y="877.59" width="198.91" height="1.82" transform="translate(-165.83 1538.11) rotate(-87.95)"/><rect x="661.12" y="877.65" width="198.91" height="1.82" transform="translate(-164.14 1539.99) rotate(-87.95)"/><rect x="662.94" y="877.72" width="198.91" height="1.82" transform="translate(-162.44 1541.88) rotate(-87.95)"/><rect x="664.76" y="877.78" width="198.91" height="1.82" transform="matrix(0.04, -1, 1, 0.04, -160.75, 1543.76)"/><rect x="666.59" y="877.85" width="198.91" height="1.82" transform="translate(-159.06 1545.65) rotate(-87.95)"/><rect x="668.41" y="877.91" width="198.91" height="1.82" transform="translate(-157.37 1547.53) rotate(-87.95)"/><rect x="670.23" y="877.98" width="198.91" height="1.82" transform="translate(-155.68 1549.42) rotate(-87.95)"/><rect x="672.05" y="878.05" width="198.91" height="1.82" transform="translate(-153.98 1551.3) rotate(-87.95)"/><rect x="673.88" y="878.11" width="198.91" height="1.82" transform="translate(-152.29 1553.19) rotate(-87.95)"/><rect x="675.7" y="878.18" width="198.91" height="1.82" transform="translate(-150.6 1555.07) rotate(-87.95)"/><rect x="677.52" y="878.24" width="198.91" height="1.82" transform="translate(-148.91 1556.96) rotate(-87.95)"/><rect x="679.35" y="878.31" width="198.91" height="1.82" transform="translate(-147.22 1558.84) rotate(-87.95)"/><rect x="681.17" y="878.37" width="198.91" height="1.82" transform="translate(-145.52 1560.73) rotate(-87.95)"/><rect x="682.99" y="878.44" width="198.91" height="1.82" transform="translate(-143.83 1562.61) rotate(-87.95)"/><rect x="684.81" y="878.51" width="198.91" height="1.82" transform="translate(-142.14 1564.5) rotate(-87.95)"/><rect x="686.64" y="878.57" width="198.91" height="1.82" transform="matrix(0.04, -1, 1, 0.04, -140.45, 1566.38)"/><rect x="688.46" y="878.64" width="198.91" height="1.82" transform="translate(-138.76 1568.27) rotate(-87.95)"/><rect x="690.28" y="878.7" width="198.91" height="1.82" transform="translate(-137.06 1570.15) rotate(-87.95)"/><rect x="692.11" y="878.77" width="198.91" height="1.82" transform="translate(-135.37 1572.04) rotate(-87.95)"/><rect x="693.93" y="878.83" width="198.91" height="1.82" transform="translate(-133.68 1573.93) rotate(-87.95)"/><rect x="695.75" y="878.9" width="198.91" height="1.82" transform="translate(-131.99 1575.81) rotate(-87.95)"/><rect x="697.57" y="878.97" width="198.91" height="1.82" transform="translate(-130.29 1577.7) rotate(-87.95)"/><rect x="699.4" y="879.03" width="198.91" height="1.82" transform="translate(-128.6 1579.58) rotate(-87.95)"/><rect x="701.22" y="879.1" width="198.91" height="1.82" transform="translate(-126.91 1581.47) rotate(-87.95)"/><rect x="703.04" y="879.16" width="198.91" height="1.82" transform="translate(-125.22 1583.35) rotate(-87.95)"/><rect x="704.87" y="879.23" width="198.91" height="1.82" transform="translate(-123.53 1585.24) rotate(-87.95)"/><rect x="706.69" y="879.29" width="198.91" height="1.82" transform="translate(-121.83 1587.12) rotate(-87.95)"/><rect x="708.51" y="879.36" width="198.91" height="1.82" transform="translate(-120.14 1589.01) rotate(-87.95)"/><rect x="710.34" y="879.43" width="198.91" height="1.82" transform="translate(-118.45 1590.89) rotate(-87.95)"/><rect x="712.16" y="879.49" width="198.91" height="1.82" transform="translate(-116.76 1592.78) rotate(-87.95)"/><rect x="713.98" y="879.56" width="198.91" height="1.82" transform="translate(-115.07 1594.66) rotate(-87.95)"/><rect x="715.8" y="879.62" width="198.91" height="1.82" transform="translate(-113.37 1596.55) rotate(-87.95)"/><rect x="717.63" y="879.69" width="198.91" height="1.82" transform="translate(-111.68 1598.43) rotate(-87.95)"/><rect x="719.45" y="879.75" width="198.91" height="1.82" transform="translate(-109.99 1600.32) rotate(-87.95)"/><rect x="721.27" y="879.82" width="198.91" height="1.82" transform="translate(-108.3 1602.2) rotate(-87.95)"/><rect x="723.1" y="879.89" width="198.91" height="1.82" transform="translate(-106.61 1604.09) rotate(-87.95)"/><rect x="724.92" y="879.95" width="198.91" height="1.82" transform="translate(-104.91 1605.97) rotate(-87.95)"/><rect x="726.74" y="880.02" width="198.91" height="1.82" transform="translate(-103.22 1607.86) rotate(-87.95)"/><rect x="728.56" y="880.08" width="198.91" height="1.82" transform="translate(-101.53 1609.74) rotate(-87.95)"/><polygon points="814.79 714.45 809.27 868.71 807.67 913.23 805.86 913.16 812.97 714.38 814.79 714.45"/><polygon points="809.27 868.71 814.79 714.45 814.83 714.45 809.27 868.71"/></g><path class="cls-58" d="M809.66,880.4c-1.33,36.9-19.9,66.45-42,67.55-22.88-1.1-40.29-32.59-38.9-70.52,1-27.74,11.71-51.28,26.4-61.78a48.61,48.61,0,0,0-.55,5.89c-.6,16.44,7,30,16.93,30.4s18.45-12.68,19.06-29.07a30.56,30.56,0,0,0-.06-3.33C802.87,831.85,810.64,854.61,809.66,880.4Z" transform="translate(-19.52 -67.25)"/><ellipse cx="1154.84" cy="878.93" rx="99.45" ry="60.2" transform="matrix(0.04, -1, 1, 0.04, 215.67, 1934.36)"/><g class="cls-59"><polygon points="1077.12 754.63 1071.6 908.9 1071.56 908.89 1077.12 754.63"/><polygon points="1080.54 710.18 1073.43 908.96 1071.6 908.9 1077.12 754.63 1078.73 710.12 1080.54 710.18"/><rect x="997.96" y="875.94" width="198.91" height="1.82" transform="translate(162.37 1874.97) rotate(-87.95)"/><rect x="999.78" y="876.01" width="198.91" height="1.82" transform="matrix(0.04, -1, 1, 0.04, 164.06, 1876.86)"/><rect x="1001.61" y="876.08" width="198.91" height="1.82" transform="translate(165.76 1878.75) rotate(-87.95)"/><rect x="1003.43" y="876.14" width="198.91" height="1.82" transform="translate(167.45 1880.63) rotate(-87.95)"/><rect x="1005.25" y="876.21" width="198.91" height="1.82" transform="translate(169.14 1882.52) rotate(-87.95)"/><rect x="1007.07" y="876.27" width="198.91" height="1.82" transform="translate(170.83 1884.4) rotate(-87.95)"/><rect x="1008.9" y="876.34" width="198.91" height="1.82" transform="translate(172.53 1886.29) rotate(-87.95)"/><rect x="1010.72" y="876.4" width="198.91" height="1.82" transform="translate(174.22 1888.17) rotate(-87.95)"/><rect x="1012.54" y="876.47" width="198.91" height="1.82" transform="translate(175.91 1890.06) rotate(-87.95)"/><rect x="1014.37" y="876.54" width="198.91" height="1.82" transform="translate(177.6 1891.94) rotate(-87.95)"/><rect x="1016.19" y="876.6" width="198.91" height="1.82" transform="translate(179.29 1893.83) rotate(-87.95)"/><rect x="1018.01" y="876.67" width="198.91" height="1.82" transform="translate(180.99 1895.71) rotate(-87.95)"/><rect x="1019.83" y="876.73" width="198.91" height="1.82" transform="translate(182.68 1897.6) rotate(-87.95)"/><rect x="1021.66" y="876.8" width="198.91" height="1.82" transform="translate(184.37 1899.48) rotate(-87.95)"/><rect x="1023.48" y="876.86" width="198.91" height="1.82" transform="translate(186.06 1901.37) rotate(-87.95)"/><rect x="1025.3" y="876.93" width="198.91" height="1.82" transform="translate(187.75 1903.25) rotate(-87.95)"/><rect x="1027.13" y="877" width="198.91" height="1.82" transform="translate(189.45 1905.14) rotate(-87.95)"/><rect x="1028.95" y="877.06" width="198.91" height="1.82" transform="translate(191.14 1907.02) rotate(-87.95)"/><rect x="1030.77" y="877.13" width="198.91" height="1.82" transform="translate(192.83 1908.91) rotate(-87.95)"/><rect x="1032.59" y="877.19" width="198.91" height="1.82" transform="translate(194.52 1910.79) rotate(-87.95)"/><rect x="1034.42" y="877.26" width="198.91" height="1.82" transform="translate(196.21 1912.68) rotate(-87.95)"/><rect x="1036.24" y="877.32" width="198.91" height="1.82" transform="translate(197.91 1914.56) rotate(-87.95)"/><rect x="1038.06" y="877.39" width="198.91" height="1.82" transform="translate(199.6 1916.45) rotate(-87.95)"/><rect x="1039.89" y="877.46" width="198.91" height="1.82" transform="translate(201.29 1918.33) rotate(-87.95)"/><rect x="1041.71" y="877.52" width="198.91" height="1.82" transform="translate(202.98 1920.22) rotate(-87.95)"/><rect x="1043.53" y="877.59" width="198.91" height="1.82" transform="translate(204.68 1922.1) rotate(-87.95)"/><rect x="1045.36" y="877.65" width="198.91" height="1.82" transform="translate(206.37 1923.99) rotate(-87.95)"/><rect x="1047.18" y="877.72" width="198.91" height="1.82" transform="translate(208.06 1925.87) rotate(-87.95)"/><rect x="1049" y="877.78" width="198.91" height="1.82" transform="translate(209.75 1927.76) rotate(-87.95)"/><rect x="1050.82" y="877.85" width="198.91" height="1.82" transform="translate(211.44 1929.64) rotate(-87.95)"/><rect x="1052.65" y="877.92" width="198.91" height="1.82" transform="translate(213.14 1931.53) rotate(-87.95)"/><rect x="1054.47" y="877.98" width="198.91" height="1.82" transform="translate(214.83 1933.41) rotate(-87.95)"/><rect x="1056.29" y="878.05" width="198.91" height="1.82" transform="translate(216.52 1935.3) rotate(-87.95)"/><rect x="1058.12" y="878.11" width="198.91" height="1.82" transform="translate(218.21 1937.18) rotate(-87.95)"/><rect x="1059.94" y="878.18" width="198.91" height="1.82" transform="translate(219.9 1939.07) rotate(-87.95)"/><rect x="1061.76" y="878.24" width="198.91" height="1.82" transform="translate(221.6 1940.95) rotate(-87.95)"/><rect x="1063.58" y="878.31" width="198.91" height="1.82" transform="translate(223.29 1942.84) rotate(-87.95)"/><rect x="1065.41" y="878.38" width="198.91" height="1.82" transform="translate(224.98 1944.72) rotate(-87.95)"/><rect x="1067.23" y="878.44" width="198.91" height="1.82" transform="translate(226.67 1946.61) rotate(-87.95)"/><rect x="1069.05" y="878.51" width="198.91" height="1.82" transform="translate(228.36 1948.49) rotate(-87.95)"/><rect x="1070.88" y="878.57" width="198.91" height="1.82" transform="translate(230.06 1950.38) rotate(-87.95)"/><rect x="1072.7" y="878.64" width="198.91" height="1.82" transform="translate(231.75 1952.26) rotate(-87.95)"/><rect x="1074.52" y="878.7" width="198.91" height="1.82" transform="translate(233.44 1954.15) rotate(-87.95)"/><rect x="1076.34" y="878.77" width="198.91" height="1.82" transform="translate(235.13 1956.03) rotate(-87.95)"/><rect x="1078.17" y="878.83" width="198.91" height="1.82" transform="translate(236.83 1957.92) rotate(-87.95)"/><rect x="1079.99" y="878.9" width="198.91" height="1.82" transform="matrix(0.04, -1, 1, 0.04, 238.52, 1959.8)"/><rect x="1081.81" y="878.97" width="198.91" height="1.82" transform="translate(240.21 1961.69) rotate(-87.95)"/><rect x="1083.64" y="879.03" width="198.91" height="1.82" transform="translate(241.9 1963.57) rotate(-87.95)"/><rect x="1085.46" y="879.1" width="198.91" height="1.82" transform="translate(243.59 1965.46) rotate(-87.95)"/><rect x="1087.28" y="879.16" width="198.91" height="1.82" transform="matrix(0.04, -1, 1, 0.04, 245.29, 1967.34)"/><rect x="1089.1" y="879.23" width="198.91" height="1.82" transform="matrix(0.04, -1, 1, 0.04, 246.98, 1969.23)"/><rect x="1090.93" y="879.29" width="198.91" height="1.82" transform="translate(248.67 1971.11) rotate(-87.95)"/><rect x="1092.75" y="879.36" width="198.91" height="1.82" transform="translate(250.36 1973) rotate(-87.95)"/><rect x="1094.57" y="879.43" width="198.91" height="1.82" transform="translate(252.05 1974.88) rotate(-87.95)"/><rect x="1096.4" y="879.49" width="198.91" height="1.82" transform="translate(253.75 1976.77) rotate(-87.95)"/><rect x="1098.22" y="879.56" width="198.91" height="1.82" transform="translate(255.44 1978.65) rotate(-87.95)"/><rect x="1100.04" y="879.62" width="198.91" height="1.82" transform="translate(257.13 1980.54) rotate(-87.95)"/><rect x="1101.87" y="879.69" width="198.91" height="1.82" transform="translate(258.82 1982.42) rotate(-87.95)"/><rect x="1103.69" y="879.75" width="198.91" height="1.82" transform="translate(260.51 1984.31) rotate(-87.95)"/><rect x="1105.51" y="879.82" width="198.91" height="1.82" transform="translate(262.21 1986.19) rotate(-87.95)"/><rect x="1107.33" y="879.89" width="198.91" height="1.82" transform="translate(263.9 1988.08) rotate(-87.95)"/><rect x="1109.16" y="879.95" width="198.91" height="1.82" transform="translate(265.59 1989.97) rotate(-87.95)"/><rect x="1110.98" y="880.02" width="198.91" height="1.82" transform="translate(267.28 1991.85) rotate(-87.95)"/><rect x="1112.8" y="880.08" width="198.91" height="1.82" transform="translate(268.98 1993.74) rotate(-87.95)"/><polygon points="1199.03 714.45 1193.51 868.71 1191.9 913.23 1190.09 913.17 1197.2 714.38 1199.03 714.45"/><polygon points="1193.51 868.71 1199.03 714.45 1199.07 714.45 1193.51 868.71"/></g><path class="cls-58" d="M1193.92,880.4c-1.34,36.9-19.91,66.45-42,67.55-22.88-1.1-40.3-32.59-38.9-70.52,1-27.74,11.71-51.28,26.39-61.72a46.69,46.69,0,0,0-.54,5.89c-.61,16.38,7,30,16.93,30.34s18.45-12.68,19-29.07a28.23,28.23,0,0,0-.06-3.33C1187.06,831.85,1194.89,854.61,1193.92,880.4Z" transform="translate(-19.52 -67.25)"/><g class="cls-60"><path class="cls-3" d="M962.72,988.26Z" transform="translate(-19.52 -67.25)"/><path class="cls-3" d="M962.72,988.26Z" transform="translate(-19.52 -67.25)"/><path class="cls-3" d="M962.72,988.26Z" transform="translate(-19.52 -67.25)"/><path class="cls-3" d="M962.72,988.26Z" transform="translate(-19.52 -67.25)"/><path class="cls-3" d="M962.72,988.26Z" transform="translate(-19.52 -67.25)"/><path class="cls-4" d="M962.72,988.26Z" transform="translate(-19.52 -67.25)"/><path class="cls-4" d="M962.72,988.26Z" transform="translate(-19.52 -67.25)"/><path class="cls-4" d="M962.72,988.26Z" transform="translate(-19.52 -67.25)"/><path class="cls-4" d="M962.72,988.26Z" transform="translate(-19.52 -67.25)"/><path class="cls-5" d="M962.72,988.26Z" transform="translate(-19.52 -67.25)"/><path class="cls-5" d="M962.72,988.26Z" transform="translate(-19.52 -67.25)"/><path class="cls-6" d="M962.72,988.26Z" transform="translate(-19.52 -67.25)"/><path class="cls-6" d="M962.72,988.26Z" transform="translate(-19.52 -67.25)"/><path class="cls-7" d="M962.72,988.26Z" transform="translate(-19.52 -67.25)"/><path class="cls-8" d="M962.72,988.26Z" transform="translate(-19.52 -67.25)"/><path class="cls-9" d="M962.72,988.26Z" transform="translate(-19.52 -67.25)"/><path class="cls-9" d="M962.72,988.26Z" transform="translate(-19.52 -67.25)"/><path class="cls-10" d="M962.72,988.26Z" transform="translate(-19.52 -67.25)"/><path class="cls-10" d="M962.72,988.26Z" transform="translate(-19.52 -67.25)"/><path class="cls-11" d="M962.72,988.26Z" transform="translate(-19.52 -67.25)"/><path class="cls-12" d="M962.72,988.26Z" transform="translate(-19.52 -67.25)"/><path class="cls-13" d="M962.72,988.26Z" transform="translate(-19.52 -67.25)"/><path class="cls-13" d="M962.72,988.26Z" transform="translate(-19.52 -67.25)"/><path class="cls-14" d="M962.72,988.26Z" transform="translate(-19.52 -67.25)"/><path class="cls-15" d="M962.72,988.26Z" transform="translate(-19.52 -67.25)"/><path class="cls-16" d="M962.72,988.26Z" transform="translate(-19.52 -67.25)"/><path class="cls-17" d="M962.72,988.26Z" transform="translate(-19.52 -67.25)"/><path class="cls-18" d="M962.72,988.26Z" transform="translate(-19.52 -67.25)"/><path class="cls-18" d="M962.72,988.26Z" transform="translate(-19.52 -67.25)"/><path class="cls-19" d="M962.72,988.26Z" transform="translate(-19.52 -67.25)"/><path class="cls-20" d="M962.72,988.26Z" transform="translate(-19.52 -67.25)"/><path class="cls-21" d="M962.72,988.26Z" transform="translate(-19.52 -67.25)"/><path class="cls-22" d="M962.72,988.26Z" transform="translate(-19.52 -67.25)"/><path class="cls-23" d="M962.72,988.26Z" transform="translate(-19.52 -67.25)"/><path class="cls-24" d="M962.72,988.26Z" transform="translate(-19.52 -67.25)"/><path class="cls-25" d="M962.72,988.26Z" transform="translate(-19.52 -67.25)"/><path class="cls-26" d="M962.72,988.26Z" transform="translate(-19.52 -67.25)"/><path class="cls-27" d="M962.72,988.26Z" transform="translate(-19.52 -67.25)"/><path class="cls-28" d="M962.72,988.26Z" transform="translate(-19.52 -67.25)"/><path class="cls-29" d="M962.72,988.26Z" transform="translate(-19.52 -67.25)"/><path class="cls-30" d="M962.72,988.26Z" transform="translate(-19.52 -67.25)"/><path class="cls-31" d="M962.72,988.26Z" transform="translate(-19.52 -67.25)"/><path class="cls-32" d="M962.72,988.26Z" transform="translate(-19.52 -67.25)"/><path class="cls-33" d="M962.72,988.26Z" transform="translate(-19.52 -67.25)"/><path class="cls-34" d="M962.72,988.26Z" transform="translate(-19.52 -67.25)"/><path class="cls-35" d="M962.72,988.26Z" transform="translate(-19.52 -67.25)"/><path class="cls-36" d="M962.72,988.26Z" transform="translate(-19.52 -67.25)"/><path class="cls-37" d="M962.72,988.26Z" transform="translate(-19.52 -67.25)"/><path class="cls-38" d="M962.72,988.26Z" transform="translate(-19.52 -67.25)"/><path class="cls-39" d="M962.72,988.26Z" transform="translate(-19.52 -67.25)"/><path class="cls-40" d="M962.72,988.26Z" transform="translate(-19.52 -67.25)"/><path class="cls-41" d="M962.72,988.26Z" transform="translate(-19.52 -67.25)"/><path class="cls-42" d="M962.72,988.26Z" transform="translate(-19.52 -67.25)"/><path class="cls-43" d="M962.72,988.26Z" transform="translate(-19.52 -67.25)"/><path class="cls-44" d="M962.72,988.26Z" transform="translate(-19.52 -67.25)"/><path class="cls-45" d="M962.72,988.26Z" transform="translate(-19.52 -67.25)"/><path class="cls-46" d="M962.72,988.26Z" transform="translate(-19.52 -67.25)"/><path class="cls-47" d="M962.72,988.26Z" transform="translate(-19.52 -67.25)"/><path class="cls-48" d="M962.72,988.26Z" transform="translate(-19.52 -67.25)"/><path class="cls-49" d="M962.72,988.26Z" transform="translate(-19.52 -67.25)"/><path class="cls-50" d="M962.72,988.26Z" transform="translate(-19.52 -67.25)"/><path class="cls-51" d="M962.72,988.26Z" transform="translate(-19.52 -67.25)"/><path class="cls-52" d="M962.72,988.26Z" transform="translate(-19.52 -67.25)"/><path class="cls-53" d="M962.72,988.26Z" transform="translate(-19.52 -67.25)"/><path class="cls-54" d="M962.72,988.26Z" transform="translate(-19.52 -67.25)"/><path class="cls-55" d="M962.72,988.26Z" transform="translate(-19.52 -67.25)"/><path class="cls-56" d="M962.72,988.26Z" transform="translate(-19.52 -67.25)"/><path class="cls-56" d="M962.72,988.26Z" transform="translate(-19.52 -67.25)"/></g><path class="cls-1" d="M963,1222.3l-.12,1h-.36C962.77,1222.66,963,1222.3,963,1222.3Z" transform="translate(-19.52 -67.25)"/><path d="M962.47,1223.33h.36l.12-1S962.77,1222.66,962.47,1223.33Z" transform="translate(-19.52 -67.25)"/><path d="M962.6,1150.7l.23.06Z" transform="translate(-19.52 -67.25)"/><path class="cls-61" d="M1641.34,448.63H1641c-140.6,3.7-278.24,43.45-398.09,115-113.78,67.91-211.12,163.91-282,278C813.61,604.41,559.83,457.92,280.56,449.3h-.31l-.06-.06c-702-1.52,235.64,1395.68,240.68,1403.51-177.26-761-111.24-901.59-83.38-924.41a691.23,691.23,0,0,0,288.85,199.17c1.89,73.55,141.95,203.9,142,131.75,0-1.82.07-26.1.07-48.67,0-7.1,9.59-9.35,12.68-3,15.11,31.07,39.44,51.22,75.25,51.22,17.9,0,32.95-5,45.39-14s22.27-21.72,29.86-37.26c3.09-6.37,12.68-4.12,12.68,3,.06,22.57.06,46.85.06,48.67.06,72.63,142.06-60,142.06-133.27,0,0,163.25-46.06,305.49-197.53,3.52,2.55,98.31,69.79-99.89,920.83C1397.39,1841.34,2343.28,447.12,1641.34,448.63ZM753.89,980.84H752.5c-34.59-1.28-61-48-59-104.14v-.06c1-27,8.32-52.13,20.58-70.88,12.5-19.11,28.76-29.31,45.75-28.77a28.2,28.2,0,0,1,4.43.49c-14.32,2.13-27.73,11.89-38.47,28.28-12.26,18.75-19.6,43.88-20.57,70.88v.06c-1.95,53.83,22.27,98.86,54.67,103.71A48.58,48.58,0,0,1,753.89,980.84ZM767.67,948c-22.88-1.1-40.29-32.59-38.9-70.52,1-27.74,11.71-51.28,26.4-61.78,2-12.5,8.62-22,16.57-23.06a.11.11,0,0,1,.18,0,8.35,8.35,0,0,1,1.76-.12c8.74.3,15.66,10.74,16.81,24.46.06.85.06,1.7.06,2.61,12.32,12.31,20.09,35.07,19.11,60.86C808.33,917.3,789.76,946.85,767.67,948Zm188.79,275.38h-.36c.3-.67.48-1,.48-1Zm180.29-242.49c-34.59-1.28-61-48-59-104.14v-.06c2-56.19,31.8-100.86,66.32-99.65a38.19,38.19,0,0,1,4.38.43c-31.32,4.8-57.11,47-59,99.22v.06c-1.94,53.83,22.27,98.86,54.68,103.71A42.82,42.82,0,0,1,1136.75,980.84ZM1151.93,948c-22.88-1.1-40.3-32.59-38.9-70.52,1-27.74,11.71-51.28,26.39-61.72v-.06c2-12.5,8.62-22,16.57-23.06a.11.11,0,0,1,.18,0,8.4,8.4,0,0,1,1.76-.12c8.74.3,15.66,10.74,16.81,24.46.06.85.06,1.7.06,2.61,12.26,12.31,20.09,35.07,19.12,60.86C1192.58,917.3,1174,946.85,1151.93,948Z" transform="translate(-19.52 -67.25)"/><path d="M790.55,819.54c0-.91,0-1.76-.06-2.61-1.15-13.72-8.07-24.16-16.81-24.46a8.35,8.35,0,0,0-1.76.12.11.11,0,0,0-.18,0c-8,1.09-14.57,10.56-16.57,23.06a48.61,48.61,0,0,0-.55,5.89c-.6,16.44,7,30,16.93,30.4s18.45-12.68,19.06-29.07A30.56,30.56,0,0,0,790.55,819.54Z" transform="translate(-19.52 -67.25)"/><path d="M1174.8,819.54c0-.91,0-1.76-.06-2.61-1.15-13.72-8.07-24.16-16.81-24.46a8.4,8.4,0,0,0-1.76.12.11.11,0,0,0-.18,0c-8,1.09-14.57,10.56-16.57,23.06v.06a46.69,46.69,0,0,0-.54,5.89c-.61,16.38,7,30,16.93,30.34s18.45-12.68,19-29.07A28.23,28.23,0,0,0,1174.8,819.54Z" transform="translate(-19.52 -67.25)"/><line class="cls-61" x1="901.39" y1="538.99" x2="649.32" y2="1.6"/><path class="cls-61" d="M918.07,607.42C907.18,598.56,898.34,588.86,890,579a320.77,320.77,0,0,1-22.64-30.73A362.19,362.19,0,0,1,848.42,516a163.67,163.67,0,0,1-14.18-34.24c-6.84-23.91-8.19-50.11-17-73.21-8.61-23.18-21.94-44.39-37.91-64.51-7.85-10.12-15.89-20.15-23.05-30.56s-13.41-21.18-19.74-31.93c-12.68-21.48-25.39-43-35-65.71a518.93,518.93,0,0,1-23.61-70.46C671.8,121.14,666.88,96.43,666,70l5.68-2.35c20.13,18.39,36.21,38.46,51.08,59a533.57,533.57,0,0,1,39.41,63.89c11.38,22,19.68,45.33,28,68.62,4.17,11.65,8.51,23.22,11.77,35.25s5.8,24.34,8.46,36.61c5,24.67,12.71,48.23,25.11,69.84,12.21,21.68,31.87,40.26,46,61.13A165.22,165.22,0,0,1,898.87,495a353.55,353.55,0,0,1,12.61,34.89,304.68,304.68,0,0,1,8.87,36.45c2.12,12.49,3.78,25.18,3.39,38.72Z" transform="translate(-19.52 -67.25)"/><line class="cls-61" x1="1009.89" y1="539.55" x2="1231.56" y2="1.04"/><path class="cls-61" d="M1026.57,605.77c-1-13.28,0-25.81,1.46-38.18a299.29,299.29,0,0,1,7-36.17,350.08,350.08,0,0,1,10.71-34.81,162.33,162.33,0,0,1,15.43-33.08c12.91-21.1,31.32-40.19,42.27-62,11.13-21.75,17.54-45.22,21.29-69.66,2-12.16,3.84-24.4,6.55-36.32s6.32-23.5,9.86-35.11c7.05-23.24,14.07-46.48,24.2-68.6a521.49,521.49,0,0,1,35.62-64.43c13.61-20.84,28.44-41.24,47.32-60.16l5.69,2.08c.41,26-3.23,50.43-8.1,74.46A506.64,506.64,0,0,1,1226,214c-8.35,22.77-19.8,44.4-31.22,66-5.7,10.82-11.23,21.71-17.84,32.2s-14,20.72-21.17,31c-14.72,20.44-26.78,41.85-34.12,65-7.53,23.06-7.59,48.84-13.15,72.62a160.32,160.32,0,0,1-12.28,34.23,354.25,354.25,0,0,1-17,32.51,311.43,311.43,0,0,1-20.76,31.14c-7.75,10.08-16,20-26.24,29.14Z" transform="translate(-19.52 -67.25)"/><path class="cls-61" d="M630,1684.14s63.93-176.36,257.13-208,179-137.3,179-137.3,64.78,138.07-139.65,233.36c0,0,346.79-51.42,341.92-422.85,0,0,109.23,338.23-163.43,501.23S630,1684.14,630,1684.14Z" transform="translate(-19.52 -67.25)"/></svg>